# xmcd
#
# Track frame offsets:
#  150
#  13870
#  28195
#  41396
#  54624
#  64698
#  75219
#  89165
#  103060
#  116137
#  127832
#  140823
#  151055
#  163900
#  177276
#  189652
#  200739
#  213793
#  224746
#  237971
#
# Disc length: 3320 seconds
#
# Revision: 0
# Processed by: cddbd v1.5.1PL2 Copyright (c) Steve Scherf et al.
# Submitted via: Collectorz.com_Music_Collector 6.9
#
DISCID=250cf614
DTITLE=Various Artist - Roots Of R&B [CD1]
DYEAR=1900
DGENRE=
TTITLE0=The Orioles - Crying In The Chapel
TTITLE1=The Jets - I'll Hide My Tears
TTITLE2=The Five Keys - Going Down Town
TTITLE3=Jesse Belvin - Three Dots And A Dash - All That Wine Is Gone
TTITLE4=The Ebonaires - You're Nobody Till Somebody Loves You
TTITLE5=Kidds - You Broke My Heart
TTITLE6=Little Sylvia - I Went To Your Wedding
TTITLE7=The Enchanters - I've Lost
TTITLE8=Sha-Weez - No One To Love Me
TTITLE9=The Bees - Darling Please
TTITLE10=Kidds - Are You Forgetting Me
TTITLE11=The Feathers - Shake 'em Up
TTITLE12=The Crows - I Love You So
TTITLE13=The Penguins - Earth Angel
TTITLE14=The Five Budds - I Want Her Back
TTITLE15=The Platters - Give Thanks
TTITLE16=Little Esther - Ring-A-Ding-Doo
TTITLE17=The Clovers - Hey Miss Fannie
TTITLE18=Nellie Lutcher - Fine Brown Frame
TTITLE19=The Metronomes - Dear Don
EXTD=
EXTT0=
EXTT1=
EXTT2=
EXTT3=
EXTT4=
EXTT5=
EXTT6=
EXTT7=
EXTT8=
EXTT9=
EXTT10=
EXTT11=
EXTT12=
EXTT13=
EXTT14=
EXTT15=
EXTT16=
EXTT17=
EXTT18=
EXTT19=
PLAYORDER=
